<svg id="linkedin" xmlns="http://www.w3.org/2000/svg" width="26" height="26" viewBox="0 0 26 26">
  <path id="Path_2520" d="M22.154,23.937H18.3V17.9c0-1.439-.026-3.29-2-3.29-2.006,0-2.314,1.567-2.314,3.187v6.137H10.132V11.529h3.7v1.7h.051a4.055,4.055,0,0,1,3.649-2c3.905,0,4.624,2.569,4.624,5.909ZM5.785,9.832A2.236,2.236,0,1,1,8.02,7.6,2.235,2.235,0,0,1,5.785,9.832h0m1.926,14.1H3.854V11.529H7.71ZM24.074,1.783H1.918A1.9,1.9,0,0,0,0,3.658V25.906a1.9,1.9,0,0,0,1.918,1.876H24.074A1.9,1.9,0,0,0,26,25.906V3.657a1.9,1.9,0,0,0-1.926-1.875" transform="translate(0 -1.782)" fill="#fff"/>
</svg>
