<svg id="XMLID_184_" xmlns="http://www.w3.org/2000/svg" width="36" height="25.362" viewBox="0 0 36 25.362">
  <path id="Path_10" data-name="Path 10" d="M35.247,7.506a4.525,4.525,0,0,0-3.183-3.2C29.257,3.546,18,3.546,18,3.546s-11.258,0-14.065.756a4.523,4.523,0,0,0-3.182,3.2C0,10.332,0,16.227,0,16.227s0,5.9.753,8.721a4.525,4.525,0,0,0,3.183,3.2c2.806.756,14.064.756,14.064.756s11.258,0,14.065-.756a4.527,4.527,0,0,0,3.183-3.2C36,22.122,36,16.227,36,16.227S36,10.332,35.247,7.506ZM14.319,21.58V10.873l9.408,5.353Z" transform="translate(0 -3.546)" fill="#fff"/>
</svg>
