<svg id="icone_installation" data-name="icone installation" xmlns="http://www.w3.org/2000/svg" width="69.098" height="69.104" viewBox="0 0 69.098 69.104">
  <path id="Path_30" data-name="Path 30" d="M90.618,354.544a1.011,1.011,0,0,0-1.43,0l-8.47,8.47a1.011,1.011,0,0,0,1.43,1.43l8.47-8.47A1.012,1.012,0,0,0,90.618,354.544Z" transform="translate(-69.581 -306.48)"/>
  <path id="Path_31" data-name="Path 31" d="M65.556,48.228a12.068,12.068,0,0,0-9.83-3.515L43.152,32.139,59.634,15.656a.1.1,0,0,1,.039-.025L63.328,14.3A3.257,3.257,0,0,0,65,12.918L68.434,7.19a3.242,3.242,0,0,0-.488-3.966L65.673.952A3.242,3.242,0,0,0,61.707.464l-5.665,3.4A3.239,3.239,0,0,0,54.6,5.708L53.47,9.47a.1.1,0,0,1-.026.044L36.985,25.972,24.4,13.387A12.171,12.171,0,0,0,9.926.234a2.129,2.129,0,0,0-1.1,3.595l5.418,5.418a.1.1,0,0,1,.025.107l-1.184,3.552a.105.105,0,0,1-.066.066L9.465,14.157a.1.1,0,0,1-.107-.025L3.939,8.714a2.129,2.129,0,0,0-3.594,1.1A12.187,12.187,0,0,0,13.509,24.3l8.627,8.627-.164.164a2.093,2.093,0,0,0,0,2.956l.175.175-2.786.4a3.263,3.263,0,0,0-1.835.917L1.688,53.376a3.248,3.248,0,0,0-.578,3.8,5.329,5.329,0,0,0,.469,6.989l3.376,3.376a5.321,5.321,0,0,0,6.99.469,3.252,3.252,0,0,0,3.8-.578L31.585,51.6a3.265,3.265,0,0,0,.918-1.835l.4-2.787.175.175a2.09,2.09,0,0,0,2.956,0l.164-.164,8.638,8.638A12.171,12.171,0,0,0,56.94,69.011a12.239,12.239,0,0,0,2.368-.232,2.13,2.13,0,0,0,1.1-3.595l-5.418-5.417a.1.1,0,0,1-.025-.108l1.184-3.552a.105.105,0,0,1,.066-.066l3.552-1.184a.1.1,0,0,1,.107.025L65.295,60.3a2.129,2.129,0,0,0,3.594-1.1,12.162,12.162,0,0,0-3.333-10.974ZM54.874,10.944a2.137,2.137,0,0,0,.533-.89l1.134-3.761a1.22,1.22,0,0,1,.542-.7l5.665-3.4a1.222,1.222,0,0,1,1.495.184l2.273,2.273A1.222,1.222,0,0,1,66.7,6.15l-3.436,5.727a1.226,1.226,0,0,1-.629.52l-3.655,1.335a2.144,2.144,0,0,0-.775.494L33.765,38.665l-3.306-3.306L37.7,28.122l0,0,0-.005ZM14.59,22.522a1.012,1.012,0,0,0-.859-.286A10.163,10.163,0,0,1,2.33,10.2a.1.1,0,0,1,.076-.085.093.093,0,0,1,.1.026l5.418,5.417a2.116,2.116,0,0,0,2.177.514l3.552-1.184A2.138,2.138,0,0,0,15,13.546l1.184-3.552a2.116,2.116,0,0,0-.514-2.177L10.254,2.4a.09.09,0,0,1-.026-.1.106.106,0,0,1,.089-.078A10.149,10.149,0,0,1,22.336,13.612a1.011,1.011,0,0,0,.286.857L35.555,27.4l-6.527,6.527L26.56,31.46a2.09,2.09,0,0,0-2.956,0l-.038.038Zm1.882,20.657a1.223,1.223,0,0,1,0,1.727L8,53.376a1.221,1.221,0,1,1-1.727-1.727h0l8.47-8.47A1.223,1.223,0,0,1,16.472,43.179ZM6.385,66.115,3.009,62.739a3.306,3.306,0,0,1-.526-3.981l7.884,7.884a3.3,3.3,0,0,1-3.981-.527Zm6.206-.109L3.118,56.533a1.221,1.221,0,0,1,0-1.727L4.15,53.774a3.245,3.245,0,0,0,5.284,1.032l8.47-8.47a3.24,3.24,0,0,0-1.034-5.281l1.9-1.9,11.2,11.2-1.9,1.9a3.245,3.245,0,0,0-5.284-1.032l-8.47,8.47a3.247,3.247,0,0,0,1.032,5.284l-1.031,1.031a1.223,1.223,0,0,1-1.727,0Zm4.021-2.8a1.221,1.221,0,0,1-.864-2.085l8.47-8.47a1.221,1.221,0,1,1,1.727,1.727l-8.47,8.47h0a1.214,1.214,0,0,1-.864.358Zm14.07-14.994-9.769-9.77,3.023-.432,7.179,7.179Zm3.873-2.47a.063.063,0,0,1-.048-.02h0l-11.1-11.1a.067.067,0,0,1,0-.1l1.632-1.632a.067.067,0,0,1,.1,0l11.1,11.1a.067.067,0,0,1,0,.1L34.6,45.722a.064.064,0,0,1-.047.02ZM66.9,58.81a.1.1,0,0,1-.076.085.093.093,0,0,1-.1-.026l-5.418-5.418a2.117,2.117,0,0,0-2.177-.514l-3.552,1.184a2.138,2.138,0,0,0-1.346,1.346L53.048,59.02a2.117,2.117,0,0,0,.514,2.177l5.418,5.418a.09.09,0,0,1,.026.1.106.106,0,0,1-.089.078A10.149,10.149,0,0,1,46.9,55.4a1.012,1.012,0,0,0-.286-.857l-8.986-8.986.038-.038a2.093,2.093,0,0,0,0-2.956L35.195,40.1l6.527-6.527L54.644,46.491a1.012,1.012,0,0,0,.859.286A10.163,10.163,0,0,1,66.9,58.81Z" transform="translate(-0.023 0)"/>
  <path id="Path_32" data-name="Path 32" d="M123.508,121.259l-1.579,1.579a1.011,1.011,0,0,0,1.43,1.43l1.579-1.579a1.011,1.011,0,0,0-1.43-1.43Z" transform="translate(-105.235 -104.652)"/>
  <path id="Path_33" data-name="Path 33" d="M366.686,364.437l-1.579,1.579a1.011,1.011,0,0,0,1.43,1.43l1.579-1.579a1.011,1.011,0,0,0-1.43-1.43Z" transform="translate(-315.622 -315.039)"/>
</svg>
