<svg id="Group_48" data-name="Group 48" xmlns="http://www.w3.org/2000/svg" width="66.237" height="69.104" viewBox="0 0 66.237 69.104">
  <path id="Path_152" data-name="Path 152" d="M408.416,373.2h-.146c.013-2.19.019-4.538-.008-4.863a1.54,1.54,0,0,0-2.824-.87c-.517.635-2.911,4.949-3.632,6.256a1.013,1.013,0,0,0,.887,1.5h3.538c0,.591-.009,1.157-.013,1.668a1.013,1.013,0,0,0,2.025.017c0-.314.008-.926.014-1.685h.159a1.013,1.013,0,0,0,0-2.026Zm-2.172,0h-1.83c.683-1.222,1.35-2.394,1.842-3.235C406.256,370.833,406.251,371.993,406.244,373.2Z" transform="translate(-348.898 -317.271)"/>
  <path id="Path_153" data-name="Path 153" d="M347.209,377.022H347.2c-.936.012-1.931.02-2.747.021,1.889-2.523,3.386-4.432,3.386-5.947a3.345,3.345,0,0,0-6.627-.647,1.013,1.013,0,0,0,1.988.39,1.319,1.319,0,0,1,2.612.2,3.613,3.613,0,0,1-.83,1.805c-1.444,2.063-2.305,3.191-2.768,3.8-.567.742-.825,1.08-.652,1.643a1.055,1.055,0,0,0,.686.695,48.017,48.017,0,0,0,4.977.066,1.013,1.013,0,0,0-.013-2.026Z" transform="translate(-296.573 -318.117)"/>
  <path id="Path_154" data-name="Path 154" d="M309.63,306.377a13.876,13.876,0,1,0,13.876,13.876A13.892,13.892,0,0,0,309.63,306.377Zm0,25.727a11.851,11.851,0,1,1,11.851-11.851A11.864,11.864,0,0,1,309.63,332.1Z" transform="translate(-257.27 -265.026)"/>
  <path id="Path_155" data-name="Path 155" d="M49.813,64.4H44.079L41.344,48.964,42.6,46.808a2.7,2.7,0,0,0,2.65-.661l.01-.01,6.122-6.131A17.418,17.418,0,0,1,54.7,41.3a1.013,1.013,0,0,0,.923-1.8,19.463,19.463,0,0,0-4.15-1.555l-2.7-1.656a2.664,2.664,0,0,0-2.8.021l-.306.194a3.511,3.511,0,0,1-.364-2.515,14.366,14.366,0,0,0,1.706-1.292,11.264,11.264,0,0,0,2.281-2.778h2.064a4.244,4.244,0,0,0,4.239-4.239V17.8a3.355,3.355,0,0,0-1.917-3.032V9.214a4.526,4.526,0,0,0-4.521-4.521h-.118a.172.172,0,0,1-.172-.172A4.526,4.526,0,0,0,44.345,0H33.178a10.022,10.022,0,0,0-10.01,10.011v4.756A3.355,3.355,0,0,0,21.251,17.8v4a3.36,3.36,0,0,0,3.356,3.356H26a11.8,11.8,0,0,0,3.934,7.6,14.435,14.435,0,0,0,1.606,1.207c-.061,1.039.183,1.742-.363,2.528l-.307-.195a2.664,2.664,0,0,0-2.8-.021l-2.7,1.655A19.468,19.468,0,0,0,10.623,56.822v4.063a5.542,5.542,0,0,0,5.536,5.536H49.813a1.013,1.013,0,0,0,0-2.025ZM47.059,38.012a.625.625,0,0,1,.658,0l1.735,1.064L43.832,44.7a.681.681,0,0,1-.91.031L40.136,42.4l6.922-4.391Zm-3.1-.431-5.535,3.511L32.89,37.583a4.271,4.271,0,0,0,.676-2.543,12.8,12.8,0,0,0,4.909.988H38.5a12.818,12.818,0,0,0,4.781-.979,4.218,4.218,0,0,0,.679,2.532Zm-3.05,8.107L39.7,47.763H37.145l-1.208-2.075,2.485-2.076ZM46.379,29.54H43.733a.815.815,0,0,1,0-1.63h2.646a.815.815,0,1,1,0,1.63Zm7.189-3.868a2.216,2.216,0,0,1-2.214,2.214H50.232a12.374,12.374,0,0,0,.633-2.727h1.373a3.339,3.339,0,0,0,1.331-.275Zm-.149-8.486a1.326,1.326,0,0,1,.149.612v4a1.332,1.332,0,0,1-1.331,1.331h-1.3V19.088a3.579,3.579,0,0,0,2.477-1.9ZM25.9,23.133h-1.3A1.332,1.332,0,0,1,23.276,21.8v-4a1.326,1.326,0,0,1,.149-.612,3.576,3.576,0,0,0,2.477,1.9Zm-.011-6.195a1.041,1.041,0,0,1-.7-.982V10.011a7.994,7.994,0,0,1,7.985-7.985H44.345a2.5,2.5,0,0,1,2.5,2.5,2.2,2.2,0,0,0,2.2,2.2h.118a2.5,2.5,0,0,1,2.5,2.5v6.743a1.04,1.04,0,0,1-.7.982l-2.216.772a.177.177,0,0,1-.237-.169l0-4.19c.013-3.131-2.9-5.651-6.808-4.4a11.242,11.242,0,0,1-6.55,0c-3.869-1.244-6.821,1.227-6.808,4.393l0,4.193a.177.177,0,0,1-.236.168ZM31.26,31.229a10.2,10.2,0,0,1-3.331-7.419V19.733a2.2,2.2,0,0,0,2.441-2.194l0-4.2c-.007-1.676,1.508-3.312,4.162-2.459a13.287,13.287,0,0,0,7.79,0c2.485-.8,4.17.612,4.162,2.463l0,4.193a2.2,2.2,0,0,0,2.441,2.194v4.342a10.441,10.441,0,0,1-.455,2.72,2.833,2.833,0,0,0-2.082-.91H43.733a2.841,2.841,0,0,0,0,5.682H45.2a10.637,10.637,0,0,1-13.937-.337Zm-2.132,6.778a.626.626,0,0,1,.658,0L36.708,42.4c-2.725,2.275-2.73,2.281-2.785,2.327a.681.681,0,0,1-.91-.031l-5.62-5.628ZM32.766,64.4H22.73V59.642a1.013,1.013,0,1,0-2.026,0V64.4H16.159a3.514,3.514,0,0,1-3.51-3.51V56.822A17.442,17.442,0,0,1,25.464,40.006l6.122,6.132.01.01a2.7,2.7,0,0,0,2.65.661L35.5,48.965Zm2.057,0,2.589-14.607h2.021L42.022,64.4Z" transform="translate(-10.623 0)"/>
</svg>
