<svg xmlns="http://www.w3.org/2000/svg" width="69.849" height="69.104" viewBox="0 0 69.849 69.104">
  <path id="home-security" d="M36.824,43.943v1.5h-.9a1.483,1.483,0,0,0-1.481,1.481V53.55a1.483,1.483,0,0,0,1.481,1.481H45.96A1.483,1.483,0,0,0,47.44,53.55V46.921a1.483,1.483,0,0,0-1.481-1.481h-.9v-1.5a4.12,4.12,0,0,0-8.24,0Zm8.911,9.384H36.15V47.144h9.585Zm-2.376-9.384v1.5H38.527v-1.5a2.416,2.416,0,1,1,4.832,0Zm-4.1,5.521a1.685,1.685,0,1,1,2.537,1.452v.8a.852.852,0,0,1-1.7,0v-.8A1.687,1.687,0,0,1,39.258,49.464Zm39.586,6.83L72.787,45.348V35.6a3.419,3.419,0,0,0-3.416-3.416H67.5L43.42,13.455a3.981,3.981,0,0,0-4.955,0L11.9,34.112a4.978,4.978,0,0,0,5.866,8.038V66.968a3.935,3.935,0,0,0,.17,7.866H63.945a3.921,3.921,0,0,0,2.548-.94,3.957,3.957,0,0,0,1.44,2.014,2.581,2.581,0,0,1,1.1,2.161v2.773a.852.852,0,0,0,.852.852h9.1a.852.852,0,0,0,.852-.852V60.121a7.611,7.611,0,0,0-.988-3.827ZM71.082,35.6V63.145l-4.723-4.723a4.375,4.375,0,0,0-6.187,6.187c.75.75,1.532,1.516,2.287,2.257l.87.855h-10.9a1.714,1.714,0,0,1-1.712-1.712V35.6a1.714,1.714,0,0,1,1.712-1.712H69.368A1.714,1.714,0,0,1,71.082,35.6ZM49.012,56.744A17.284,17.284,0,0,1,41.905,61.3l-.963.349L39.98,61.3c-8.366-3.031-11.856-9.336-10.669-19.275l.189-1.581,1.547-.569a35.753,35.753,0,0,0,8.279-4.246l1.614-1.139,1.614,1.139a34.289,34.289,0,0,0,6.455,3.525v17.6Zm0-21.146v1.7a32.078,32.078,0,0,1-5.473-3.062l-2.105-1.485a.854.854,0,0,0-.982,0l-2.105,1.485a34.083,34.083,0,0,1-7.886,4.039l-2.037.748a.853.853,0,0,0-.552.7l-.251,2.1C26.342,52.509,30.305,59.6,39.4,62.9l1.254.454a.846.846,0,0,0,.579,0l1.252-.454a19.984,19.984,0,0,0,6.526-3.758v6.868a3.423,3.423,0,0,0,.136.955H19.473V40.838L39.512,25.255a2.3,2.3,0,0,1,2.863,0l9.089,7.068A3.418,3.418,0,0,0,49.012,35.6ZM12.374,40.053a3.278,3.278,0,0,1,.575-4.6L39.512,14.8a2.3,2.3,0,0,1,2.863,0L64.729,32.183H54.06L43.421,23.909a3.981,3.981,0,0,0-4.955,0l-21.5,16.719a3.28,3.28,0,0,1-4.6-.575ZM63.947,73.132H17.94a2.232,2.232,0,0,1,0-4.463H50.288a3.4,3.4,0,0,0,2.141.757H65.047c.186.187.373.375.558.562a2.721,2.721,0,0,1,.572.84c0,.024,0,.048,0,.074a2.237,2.237,0,0,1-2.233,2.23Zm14.181,6.86H70.734V78.071a4.282,4.282,0,0,0-1.8-3.536,2.244,2.244,0,0,1-.92-1.807,2.577,2.577,0,0,1,.018-.3,4.3,4.3,0,0,0-1.219-3.64c-1.038-1.055-2.12-2.117-3.166-3.143-.752-.738-1.532-1.5-2.276-2.246a2.671,2.671,0,1,1,3.778-3.776L70.325,64.8a1.439,1.439,0,0,0,2.457-1.018V48.866l4.566,8.252a5.89,5.89,0,0,1,.775,3V79.992ZM52.519,43.446a11.843,11.843,0,0,1,16.75.011.852.852,0,0,1-1.207,1.2,10.14,10.14,0,0,0-14.341-.01.851.851,0,1,1-1.2-1.205Zm14.245,2.52a.852.852,0,0,1-1.207,1.2,6.594,6.594,0,0,0-9.329-.01.852.852,0,0,1-1.2-1.207,8.3,8.3,0,0,1,11.739.013Zm-2.506,2.507a.852.852,0,1,1-1.207,1.2,3.05,3.05,0,0,0-4.316-.009.852.852,0,1,1-1.2-1.208,4.755,4.755,0,0,1,6.725.014ZM60.9,49.952a2.064,2.064,0,1,0,2.064,2.064A2.066,2.066,0,0,0,60.9,49.952Zm0,2.423a.361.361,0,1,1,.361-.361A.361.361,0,0,1,60.9,52.376Z" transform="translate(-9.982 -12.59)"/>
</svg>
