<svg id="phone-call" xmlns="http://www.w3.org/2000/svg" width="40" height="40" viewBox="0 0 40 40">
  <g id="Group_1" data-name="Group 1">
    <path id="Path_1" data-name="Path 1" d="M32.079,49.94a3.956,3.956,0,0,0-2.867-1.313,4.091,4.091,0,0,0-2.9,1.3L23.63,52.6c-.221-.119-.441-.229-.653-.339-.305-.152-.594-.3-.84-.449a29.116,29.116,0,0,1-6.981-6.351,17.154,17.154,0,0,1-2.29-3.607c.7-.635,1.34-1.3,1.968-1.931.238-.237.475-.483.713-.72a3.881,3.881,0,0,0,0-5.86L13.231,31.03c-.263-.263-.534-.533-.789-.8-.509-.525-1.043-1.067-1.595-1.575a4.019,4.019,0,0,0-2.842-1.245,4.159,4.159,0,0,0-2.884,1.245l-.017.017-2.884,2.9A6.191,6.191,0,0,0,.379,35.51a14.823,14.823,0,0,0,1.086,6.283A36.449,36.449,0,0,0,7.954,52.6a39.909,39.909,0,0,0,13.292,10.39,20.736,20.736,0,0,0,7.465,2.2c.178.008.365.017.534.017a6.4,6.4,0,0,0,4.894-2.1c.008-.017.025-.025.034-.042a19.267,19.267,0,0,1,1.484-1.533c.365-.347.738-.711,1.1-1.092a4.221,4.221,0,0,0,1.281-2.93,4.067,4.067,0,0,0-1.306-2.9Zm3.037,8.917c-.008,0-.008.008,0,0-.331.356-.67.677-1.035,1.033a22.285,22.285,0,0,0-1.637,1.694,4.093,4.093,0,0,1-3.189,1.346c-.127,0-.263,0-.39-.008a18.421,18.421,0,0,1-6.616-1.982,37.671,37.671,0,0,1-12.52-9.789A34.367,34.367,0,0,1,3.62,41a12.073,12.073,0,0,1-.95-5.3A3.885,3.885,0,0,1,3.84,33.181l2.893-2.888a1.93,1.93,0,0,1,1.289-.6,1.816,1.816,0,0,1,1.238.593l.025.025c.517.483,1.009.982,1.527,1.516.263.271.534.542.806.821l2.316,2.312a1.615,1.615,0,0,1,0,2.625c-.246.246-.484.491-.73.728-.713.728-1.391,1.406-2.129,2.066-.017.017-.034.025-.042.042a1.725,1.725,0,0,0-.441,1.922l.025.076a18.554,18.554,0,0,0,2.74,4.463l.008.008A31.116,31.116,0,0,0,20.9,53.734a11.589,11.589,0,0,0,1.043.567c.305.152.594.3.84.449.034.017.068.042.1.059a1.841,1.841,0,0,0,.84.212,1.815,1.815,0,0,0,1.289-.584l2.9-2.9a1.92,1.92,0,0,1,1.281-.635,1.729,1.729,0,0,1,1.221.618l.017.017,4.674,4.666A1.673,1.673,0,0,1,35.116,58.857Z" transform="translate(-0.344 -25.208)" fill="#fc273f"/>
    <path id="Path_2" data-name="Path 2" d="M245.835,88.073a10.322,10.322,0,0,1,8.405,8.405,1.076,1.076,0,0,0,1.067.9,1.432,1.432,0,0,0,.184-.016,1.084,1.084,0,0,0,.89-1.251,12.481,12.481,0,0,0-10.17-10.17,1.088,1.088,0,0,0-1.251.882A1.071,1.071,0,0,0,245.835,88.073Z" transform="translate(-223.805 -78.515)" fill="#fc273f"/>
    <path id="Path_3" data-name="Path 3" d="M266.779,16.763A20.551,20.551,0,0,0,250.033.017a1.081,1.081,0,1,0-.353,2.133,18.356,18.356,0,0,1,14.966,14.966,1.076,1.076,0,0,0,1.067.9A1.432,1.432,0,0,0,265.9,18,1.063,1.063,0,0,0,266.779,16.763Z" transform="translate(-226.796 0)" fill="#fc273f"/>
  </g>
</svg>
