<svg xmlns="http://www.w3.org/2000/svg" width="25" height="25" viewBox="0 0 25 25">
  <g id="check" transform="translate(0.001 -71.788)">
    <g id="Group_2" data-name="Group 2" transform="translate(-0.001 71.788)">
      <path id="Path_5" data-name="Path 5" d="M24.419,72.6a1.621,1.621,0,0,0-2.8,0L8.994,90.135l-5.609-7.8a1.622,1.622,0,0,0-2.8,0,3.559,3.559,0,0,0,0,3.9l7.011,9.744a1.748,1.748,0,0,0,1.4.807,1.747,1.747,0,0,0,1.4-.807L24.419,76.493A3.559,3.559,0,0,0,24.419,72.6Z" transform="translate(0.001 -71.788)" fill="#ce142c"/>
    </g>
  </g>
</svg>
