<svg id="Group_11" data-name="Group 11" xmlns="http://www.w3.org/2000/svg" width="139.152" height="74.473" viewBox="0 0 139.152 74.473">
  <g id="Group_9" data-name="Group 9" transform="translate(0 55.497)">
    <path id="Path_69" data-name="Path 69" d="M19.271,531.558a9.328,9.328,0,0,1-4.945,8.233,9.153,9.153,0,0,1-6.268,1.067A9.381,9.381,0,0,1,.551,534.7a8.718,8.718,0,0,1-.513-3.992,9.208,9.208,0,0,1,2.909-6.019,9.369,9.369,0,0,1,4.261-2.342,9.37,9.37,0,0,1,2.539-.309,9.643,9.643,0,0,1,6.316,2.425,9.293,9.293,0,0,1,2.763,4.208,9.115,9.115,0,0,1,.448,2.885Z" transform="translate(0.003 -522.037)" fill="#ff0027"/>
    <path id="Path_70" data-name="Path 70" d="M443.889,541.051a9.6,9.6,0,0,1-8.379-4.863,8.978,8.978,0,0,1-1.156-5.766,9.107,9.107,0,0,1,2.586-5.394,9.46,9.46,0,0,1,4.877-2.715,9.705,9.705,0,0,1,5.164.266,9.446,9.446,0,0,1,6.393,10.825,9.172,9.172,0,0,1-1.755,3.858,9.512,9.512,0,0,1-4.843,3.35,10.1,10.1,0,0,1-2.887.438Z" transform="translate(-388.113 -522.078)" fill="#ff0027"/>
    <path id="Path_71" data-name="Path 71" d="M236.343,531.2a9.678,9.678,0,0,1-16.381,7.148,9.216,9.216,0,0,1-2.618-4.537,8.848,8.848,0,0,1-.27-2.257,9.514,9.514,0,0,1,7.563-9.223,9.543,9.543,0,0,1,8.533,2.22,9.121,9.121,0,0,1,2.888,4.695A7.286,7.286,0,0,1,236.343,531.2Z" transform="translate(-193.995 -522.093)" fill="#ff0027"/>
  </g>
  <g id="Group_10" data-name="Group 10" transform="translate(0.018)">
    <path id="Path_72" data-name="Path 72" d="M25,6.145c0,3.072-1.943,6.145-6.434,6.145h-4.1v6.093H11.29V0h7.274C23.054,0,25,3.072,25,6.145ZM18.17,9.533a3.249,3.249,0,0,0,3.571-3.388A3.25,3.25,0,0,0,18.17,2.757h-3.7V9.532h3.7Z" transform="translate(-10.108)" fill="#fff"/>
    <path id="Path_73" data-name="Path 73" d="M162.681,59.438V45.94h2.994v1.943c.972-1.654,2.547-1.943,4.2-1.943h.42v2.836h-.289c-2.6,0-4.333.814-4.333,4.017v6.643H162.68Z" transform="translate(-145.404 -41.056)" fill="#fff"/>
    <path id="Path_74" data-name="Path 74" d="M241.97,50.456a6.919,6.919,0,1,1,13.838,0,6.92,6.92,0,1,1-13.838,0Zm10.767,0c0-2.416-1.418-4.333-3.833-4.333s-3.86,1.917-3.86,4.333,1.445,4.385,3.86,4.385S252.737,52.9,252.737,50.456Z" transform="translate(-216.264 -38.849)" fill="#fff"/>
    <path id="Path_75" data-name="Path 75" d="M386.774,28.1c-2.731,0-4.648-1.392-4.648-4.517V17.172H379.79V14.6h2.337V10.87h2.994V14.6h3.362v2.574H385.12v6.2a1.879,1.879,0,0,0,1.865,2.1h1.707V28.1h-1.917Z" transform="translate(-339.433 -9.714)" fill="#fff"/>
    <path id="Path_76" data-name="Path 76" d="M487.943,51.234H477.754c.236,2.1,1.5,3.65,3.781,3.65a2.9,2.9,0,0,0,3.1-2.022h3.178c-.368,2.626-2.81,4.621-6.329,4.621-4.2,0-6.854-3.046-6.854-7.038a6.616,6.616,0,0,1,6.88-6.986A6.238,6.238,0,0,1,488,49.972c0,.5-.027,1-.052,1.261ZM477.885,48.95h6.984a3.233,3.233,0,0,0-3.387-2.888A3.532,3.532,0,0,0,477.885,48.95Z" transform="translate(-424.191 -38.84)" fill="#fff"/>
    <path id="Path_77" data-name="Path 77" d="M615.89,50.456a6.665,6.665,0,0,1,6.959-6.986c3.492,0,6.171,2.127,6.434,5.173h-3.178a3.113,3.113,0,0,0-3.283-2.521c-2.442,0-3.86,1.917-3.86,4.333s1.418,4.385,3.86,4.385a3.113,3.113,0,0,0,3.283-2.574h3.178a6.139,6.139,0,0,1-6.434,5.226,6.721,6.721,0,0,1-6.959-7.038Z" transform="translate(-550.433 -38.849)" fill="#fff"/>
    <path id="Path_78" data-name="Path 78" d="M757.495,28.1c-2.731,0-4.648-1.392-4.648-4.517V17.172H750.51V14.6h2.337V10.87h2.994V14.6H759.2v2.574H755.84v6.2a1.879,1.879,0,0,0,1.865,2.1h1.707V28.1H757.5Z" transform="translate(-670.742 -9.714)" fill="#fff"/>
    <path id="Path_79" data-name="Path 79" d="M846.33,53.458c0-3.046,2.442-4.28,5.75-4.28h3.308V48.5a2.611,2.611,0,0,0-2.836-2.626,2.718,2.718,0,0,0-2.862,1.917h-3.046c.315-2.862,2.862-4.307,6.039-4.307,3.44,0,5.646,2,5.646,5.357v4.7c0,.736.368,1.156,1.077,1.156h.315v2.547h-1.234c-1.261,0-2.442-.315-2.678-1.812a5.354,5.354,0,0,1-4.543,2.074c-2.81,0-4.937-1.313-4.937-4.044Zm9.06-1.576v-.525h-3.624c-1.182,0-2.39.552-2.39,1.943s1.1,1.917,2.416,1.917C854.05,55.218,855.39,53.9,855.39,51.883Z" transform="translate(-756.376 -38.858)" fill="#fff"/>
    <path id="Path_80" data-name="Path 80" d="M981.92,52.828l2.888-.027c.236,1.444,1.418,2.311,3.151,2.311,1.156,0,2.547-.394,2.547-1.759,0-.92-.657-1.313-2.127-1.576l-2.363-.42c-1.654-.289-3.833-.972-3.833-3.571,0-2.337,2.127-4.307,5.489-4.307,3.939,0,5.568,2.574,5.593,4.412h-2.888a2.625,2.625,0,0,0-2.81-2.022c-1.549,0-2.442.814-2.442,1.681,0,.761.577,1.077,1.5,1.234l2.967.525c2.547.446,3.912,1.733,3.912,3.781,0,3.072-2.758,4.412-5.62,4.412s-5.672-1.418-5.961-4.674Z" transform="translate(-877.551 -38.858)" fill="#fff"/>
    <path id="Path_81" data-name="Path 81" d="M5.764,249.862V234.29H.17v-2.81H14.534v2.81H8.942v15.572H5.764Z" transform="translate(-0.17 -206.872)" fill="#fff"/>
    <path id="Path_82" data-name="Path 82" d="M131.8,282.714H121.614c.236,2.1,1.5,3.65,3.781,3.65a2.9,2.9,0,0,0,3.1-2.022h3.178c-.368,2.626-2.81,4.621-6.329,4.621-4.2,0-6.854-3.046-6.854-7.038a6.616,6.616,0,0,1,6.88-6.986,6.238,6.238,0,0,1,6.486,6.513c0,.5-.027,1-.052,1.261Zm-10.058-2.285h6.984a3.233,3.233,0,0,0-3.387-2.888A3.532,3.532,0,0,0,121.745,280.43Z" transform="translate(-105.912 -245.711)" fill="#fff"/>
    <path id="Path_83" data-name="Path 83" d="M259.75,281.936a6.665,6.665,0,0,1,6.959-6.986c3.492,0,6.171,2.127,6.434,5.173h-3.178a3.113,3.113,0,0,0-3.283-2.521c-2.442,0-3.86,1.917-3.86,4.333s1.418,4.385,3.86,4.385a3.113,3.113,0,0,0,3.283-2.574h3.178a6.139,6.139,0,0,1-6.434,5.226,6.721,6.721,0,0,1-6.959-7.038Z" transform="translate(-232.154 -245.72)" fill="#fff"/>
    <path id="Path_84" data-name="Path 84" d="M408.681,249.862V231.48h2.994v6.512a5.4,5.4,0,0,1,4.437-1.891c3.046,0,5.173,2.1,5.173,5.567v8.193h-2.994v-7.379c0-2.311-.814-3.833-3.02-3.833-2.415,0-3.6,1.811-3.6,4.254v6.959H408.68Z" transform="translate(-365.252 -206.872)" fill="#fff"/>
    <path id="Path_85" data-name="Path 85" d="M552.911,288.711v-13.5h2.915v1.628a5.4,5.4,0,0,1,4.491-1.891c3.046,0,5.173,2.127,5.173,5.514v8.245h-3.02v-7.379c0-2.311-.788-3.808-2.994-3.808-2.363,0-3.545,1.786-3.545,4.253v6.932h-3.02Z" transform="translate(-494.149 -245.72)" fill="#fff"/>
    <path id="Path_86" data-name="Path 86" d="M690.98,281.936a6.92,6.92,0,1,1,6.932,7.038A6.673,6.673,0,0,1,690.98,281.936Zm10.767,0c0-2.416-1.418-4.333-3.833-4.333s-3.86,1.917-3.86,4.333,1.445,4.385,3.86,4.385S701.747,284.378,701.747,281.936Z" transform="translate(-617.541 -245.72)" fill="#fff"/>
    <path id="Path_87" data-name="Path 87" d="M843.12,249.862V231.48h2.994v18.382Z" transform="translate(-753.507 -206.872)" fill="#fff"/>
    <path id="Path_88" data-name="Path 88" d="M893.26,281.936a6.92,6.92,0,1,1,6.932,7.038A6.673,6.673,0,0,1,893.26,281.936Zm10.767,0c0-2.416-1.418-4.333-3.833-4.333s-3.86,1.917-3.86,4.333,1.445,4.385,3.86,4.385S904.027,284.378,904.027,281.936Z" transform="translate(-798.317 -245.72)" fill="#fff"/>
    <path id="Path_89" data-name="Path 89" d="M1039.829,289.061h3.046c.394,1.576,1.733,2.179,3.6,2.179,2.415,0,3.65-1.418,3.65-3.912v-1.286a5.032,5.032,0,0,1-4.307,2.022c-3.86,0-6.355-2.758-6.355-6.565a6.2,6.2,0,0,1,6.355-6.539,5.1,5.1,0,0,1,4.333,2v-1.733h2.942v12.263c0,3.939-2.416,6.171-6.8,6.171C1042.9,293.657,1040.222,292.213,1039.829,289.061Zm10.294-7.563a3.8,3.8,0,1,0-3.808,4.071A3.854,3.854,0,0,0,1050.123,281.5Z" transform="translate(-928.974 -245.729)" fill="#fff"/>
    <path id="Path_90" data-name="Path 90" d="M1190.968,277.43h3.178l-5.7,14.6c-.972,2.468-2.049,3.624-5.278,3.624h-1.47v-2.626h1.392c1.392,0,1.891-.289,2.547-1.681l.131-.263-5.278-13.654h3.178l3.7,10.319,3.6-10.319Z" transform="translate(-1055.011 -247.937)" fill="#fff"/>
  </g>
</svg>
